# xmcd
#
# Track frame offsets:
#	150
#	15058
#	30614
#	51211
#	67095
#	86731
#	107254
#	141192
#	159287
#
# Disc length: 2465 seconds
#
# Revision: 0
# Processed by: cddbd v1.5.2PL0 Copyright (c) Steve Scherf et al.
# Submitted via: EasyCDDAExtractor 2011.0.0.0
#
DISCID=65099f09
DTITLE=Freddie King - Larger Than Life
DYEAR=1975
DGENRE=Carlos
TTITLE0=It's Better To Have (And Dont Need)
TTITLE1=You Can Run But You Can't Hide
TTITLE2=Woke Up This Morning
TTITLE3=It's Your Move
TTITLE4=Boogie Bump
TTITLE5=Meet Me In The Morning
TTITLE6=The Things I Used To Do
TTITLE7=Ain't ThatI Don't Love You
TTITLE8=Have You Ever Loved A Woman
EXTD=
EXTT0=
EXTT1=
EXTT2=
EXTT3=
EXTT4=
EXTT5=
EXTT6=
EXTT7=
EXTT8=
PLAYORDER=
